<svg width="146" height="62" viewBox="0 0 146 62" fill="none" xmlns="http://www.w3.org/2000/svg">
<path d="M11.6085 33.4568H0L32.8723 0V11.8429L11.6085 33.4568Z" fill="#002546"/>
<path d="M65.7585 16.7284C65.7585 19.0522 65.3321 21.2219 64.4793 23.2518C63.6266 25.2816 62.4575 27.0454 60.9583 28.5572C59.4728 30.0691 57.726 31.259 55.7317 32.1409C53.7374 33.0228 51.6055 33.4568 49.3223 33.4568C47.8093 33.4568 46.3514 33.2608 44.9485 32.8548C43.5455 32.4489 42.2389 31.8889 41.0148 31.161C39.8044 30.4331 38.6903 29.5651 37.7 28.5432C36.696 27.5353 35.8432 26.4014 35.1418 25.1696C34.4266 23.9377 33.8764 22.5938 33.4775 21.166C33.0787 19.7381 32.8861 18.2542 32.8861 16.7144H41.1111C41.1111 17.8483 41.3311 18.9262 41.7713 19.9481C42.2114 20.97 42.8028 21.8519 43.5455 22.6078C44.2883 23.3637 45.1548 23.9657 46.1588 24.4136C47.1629 24.8616 48.2082 25.0856 49.336 25.0856C50.4639 25.0856 51.5504 24.8616 52.5407 24.4136C53.5448 23.9657 54.4113 23.3637 55.154 22.6078C55.8967 21.8519 56.4882 20.97 56.9146 19.9481C57.3409 18.9262 57.561 17.8623 57.561 16.7144H65.786L65.7585 16.7284Z" fill="#002546"/>
<path d="M4.92398 50.1991L10.123 61.4681H8.89892L7.60603 58.6263H2.46199L1.25163 61.4681H0.0275082L4.92398 50.1991ZM7.12463 57.5624L4.93773 52.7749L2.90212 57.5624H7.12463Z" fill="#002546"/>
<path d="M15.0883 50.1991L20.2873 61.4681H19.0632L17.7703 58.6263H12.6125L11.4022 61.4681H10.1781L15.0745 50.1991H15.0883ZM17.2889 57.5624L15.102 52.7749L13.0664 57.5624H17.2889Z" fill="#002546"/>
<path d="M21.4289 50.7311H25.0875C25.6102 50.7311 26.0778 50.8151 26.4904 50.9831C26.9031 51.151 27.2607 51.375 27.5495 51.655C27.8383 51.935 28.0584 52.2709 28.2097 52.6489C28.361 53.0269 28.4435 53.4328 28.4435 53.8668C28.4435 54.2588 28.3748 54.6367 28.251 55.0007C28.1272 55.3506 27.9346 55.6586 27.6733 55.9386C27.4257 56.2046 27.1231 56.4285 26.7655 56.6105C26.4079 56.7925 26.009 56.9045 25.5552 56.9605L28.5948 61.4961H27.2194L24.2073 56.9745H22.543V61.4961H21.4152V50.7591L21.4289 50.7311ZM25.0187 55.8686C25.3901 55.8686 25.7202 55.8126 26.009 55.7006C26.2979 55.5886 26.5455 55.4486 26.738 55.2667C26.9306 55.0847 27.0681 54.8607 27.1781 54.6227C27.2744 54.3707 27.3294 54.1188 27.3294 53.8388C27.3294 53.5588 27.2744 53.2928 27.1781 53.0549C27.0819 52.8029 26.9306 52.5929 26.738 52.3969C26.5455 52.215 26.3116 52.061 26.009 51.963C25.7202 51.851 25.3901 51.809 25.0187 51.809H22.5568V55.8686H25.0187Z" fill="#002546"/>
<path d="M30.3141 50.7311H31.4419V55.3366H37.0123V50.7311H38.1402V61.4681H37.0123V56.4145H31.4419V61.4681H30.3141V50.7311Z" fill="#002546"/>
<path d="M40.3271 50.7311H41.4687V57.5904C41.4687 58.1644 41.5512 58.6403 41.7162 59.0323C41.8813 59.4242 42.0876 59.7322 42.3352 59.9702C42.5828 60.2082 42.8854 60.3762 43.2155 60.4741C43.5456 60.5721 43.8756 60.6281 44.2057 60.6281C44.5358 60.6281 44.8659 60.5721 45.196 60.4741C45.5261 60.3762 45.815 60.2082 46.0763 59.9702C46.3376 59.7322 46.5439 59.4242 46.6952 59.0323C46.8603 58.6403 46.9428 58.1644 46.9428 57.5904V50.7311H48.0844V57.7584C48.0844 58.4163 47.9744 58.9903 47.7543 59.4802C47.5342 59.9702 47.2454 60.3762 46.874 60.7121C46.5027 61.0481 46.0901 61.3001 45.6362 61.4541C45.1685 61.622 44.7009 61.706 44.2195 61.706C43.7381 61.706 43.2705 61.622 42.8028 61.4541C42.3352 61.2861 41.9226 61.0481 41.5649 60.7121C41.1936 60.3762 40.9048 59.9702 40.6847 59.4802C40.4646 58.9903 40.3546 58.4163 40.3546 57.7584V50.7311H40.3271Z" fill="#002546"/>
<path d="M50.8352 58.3324C50.8352 58.6543 50.8903 58.9623 51.0003 59.2423C51.1103 59.5222 51.2479 59.7602 51.4404 59.9702C51.633 60.1802 51.8668 60.3342 52.1281 60.4601C52.3895 60.5721 52.692 60.6421 53.0221 60.6421C53.3522 60.6421 53.6548 60.5861 53.9299 60.4881C54.205 60.3762 54.4388 60.2362 54.6451 60.0402C54.8514 59.8442 55.0027 59.6202 55.1128 59.3543C55.2228 59.0883 55.2778 58.8083 55.2778 58.5003C55.2778 58.2064 55.2228 57.9684 55.099 57.7444C54.9752 57.5344 54.8239 57.3385 54.6176 57.1845C54.4113 57.0305 54.1775 56.8905 53.9162 56.7505C53.6548 56.6245 53.3797 56.4985 53.0909 56.3865C52.7058 56.2326 52.3207 56.0786 51.9631 55.9246C51.6055 55.7706 51.2891 55.5746 51.0003 55.3506C50.7252 55.1267 50.5051 54.8607 50.3263 54.5387C50.1613 54.2308 50.065 53.8248 50.065 53.3488C50.065 52.9429 50.1338 52.5789 50.2851 52.2289C50.4364 51.879 50.6289 51.585 50.8902 51.319C51.1516 51.0671 51.4542 50.8711 51.8118 50.7171C52.1694 50.5771 52.5683 50.5071 53.0084 50.5071C53.4485 50.5071 53.8611 50.5771 54.2187 50.7311C54.5901 50.8851 54.8927 51.0951 55.154 51.361C55.4154 51.627 55.6217 51.949 55.7592 52.2989C55.8967 52.6629 55.9655 53.0549 55.9655 53.4888H54.8102C54.8102 52.9009 54.6451 52.4389 54.3013 52.089C53.9712 51.739 53.531 51.571 52.9946 51.571C52.4582 51.571 52.0318 51.739 51.688 52.061C51.3579 52.3829 51.1791 52.8029 51.1791 53.3348C51.1791 53.6148 51.2479 53.8668 51.3716 54.0628C51.4954 54.2587 51.6742 54.4407 51.8805 54.5807C52.0869 54.7347 52.3344 54.8607 52.6095 54.9727C52.8846 55.0847 53.1734 55.2107 53.476 55.3366C53.8611 55.4906 54.2187 55.6446 54.5626 55.8126C54.9064 55.9806 55.2228 56.1766 55.4841 56.4005C55.7455 56.6245 55.9655 56.9045 56.1306 57.2405C56.2956 57.5624 56.3781 57.9824 56.3781 58.4723C56.3781 58.9623 56.2956 59.3963 56.1168 59.7882C55.938 60.1802 55.7042 60.5161 55.3878 60.8101C55.0853 61.0901 54.7276 61.3141 54.315 61.4681C53.9024 61.622 53.4623 61.692 52.9946 61.692C52.527 61.692 52.0869 61.608 51.688 61.4401C51.2891 61.2721 50.9315 61.0341 50.6427 60.7401C50.3401 60.4462 50.1063 60.0822 49.9412 59.6762C49.7762 59.2703 49.6799 58.8223 49.6799 58.3324H50.8352Z" fill="#002546"/>
<path d="M61.6735 50.7311H62.8151V57.5904C62.8151 58.1644 62.8976 58.6403 63.0626 59.0323C63.2277 59.4242 63.434 59.7322 63.6816 59.9702C63.9429 60.2082 64.2317 60.3762 64.5618 60.4741C64.8919 60.5721 65.222 60.6281 65.5521 60.6281C65.8822 60.6281 66.2123 60.5721 66.5424 60.4741C66.8725 60.3762 67.1614 60.2082 67.4227 59.9702C67.684 59.7322 67.8903 59.4242 68.0416 59.0323C68.2067 58.6403 68.2892 58.1644 68.2892 57.5904V50.7311H69.4308V57.7584C69.4308 58.4163 69.3208 58.9903 69.1007 59.4802C68.8806 59.9702 68.5918 60.3762 68.2204 60.7121C67.8491 61.0481 67.4365 61.3001 66.9826 61.4541C66.5149 61.622 66.0473 61.706 65.5659 61.706C65.0845 61.706 64.6169 61.622 64.1492 61.4541C63.6816 61.2861 63.269 61.0481 62.9114 60.7121C62.54 60.3762 62.2511 59.9702 62.0311 59.4802C61.811 58.9903 61.701 58.4163 61.701 57.7584V50.7311H61.6735Z" fill="#002546"/>
<path d="M71.5902 50.3531L78.9624 58.9623V50.7451H80.0902V61.86L72.718 53.2928V61.4821H71.5902V50.3531Z" fill="#002546"/>
<path d="M82.4009 50.7311H83.5288V61.4681H82.4009V50.7311Z" fill="#002546"/>
<path d="M84.8904 50.7311H86.1283L89.6219 59.1863L92.8816 50.7311H94.0919L89.6494 62L84.9042 50.7311H84.8904Z" fill="#002546"/>
<path d="M95.3573 50.7311H101.684V51.809H96.4852V55.3366H101.23V56.4145H96.4852V60.4042H101.684V61.4821H95.3573V50.7311Z" fill="#002546"/>
<path d="M103.555 50.7311H107.213C107.736 50.7311 108.204 50.8151 108.63 50.9831C109.043 51.151 109.4 51.375 109.689 51.655C109.978 51.935 110.198 52.2709 110.349 52.6489C110.501 53.0269 110.583 53.4328 110.583 53.8668C110.583 54.2588 110.514 54.6367 110.391 55.0007C110.253 55.3506 110.06 55.6586 109.813 55.9386C109.565 56.2046 109.263 56.4285 108.905 56.6105C108.548 56.7925 108.149 56.9045 107.695 56.9605L110.734 61.4961H109.359L106.347 56.9745H104.696V61.4961H103.569V50.7591L103.555 50.7311ZM107.131 55.8686C107.502 55.8686 107.832 55.8126 108.121 55.7006C108.41 55.5886 108.658 55.4486 108.85 55.2667C109.043 55.0847 109.18 54.8607 109.29 54.6227C109.387 54.3707 109.442 54.1188 109.442 53.8388C109.442 53.5588 109.387 53.2928 109.29 53.0549C109.194 52.8029 109.043 52.5929 108.85 52.3969C108.658 52.215 108.424 52.061 108.121 51.963C107.832 51.851 107.502 51.809 107.131 51.809H104.669V55.8686H107.131Z" fill="#002546"/>
<path d="M113.045 58.3324C113.045 58.6543 113.1 58.9623 113.21 59.2423C113.32 59.5222 113.458 59.7602 113.65 59.9702C113.843 60.1802 114.077 60.3342 114.338 60.4601C114.599 60.5721 114.902 60.6421 115.232 60.6421C115.562 60.6421 115.865 60.5861 116.14 60.4881C116.415 60.3762 116.649 60.2362 116.855 60.0402C117.061 59.8442 117.213 59.6202 117.323 59.3543C117.433 59.0883 117.488 58.8083 117.488 58.5003C117.488 58.2064 117.433 57.9684 117.309 57.7444C117.185 57.5344 117.02 57.3385 116.828 57.1845C116.621 57.0305 116.387 56.8905 116.126 56.7505C115.865 56.6105 115.59 56.4985 115.301 56.3865C114.916 56.2326 114.531 56.0786 114.173 55.9246C113.815 55.7706 113.499 55.5746 113.21 55.3506C112.935 55.1267 112.715 54.8607 112.536 54.5387C112.371 54.2308 112.275 53.8248 112.275 53.3488C112.275 52.9429 112.344 52.5789 112.495 52.2289C112.632 51.879 112.839 51.585 113.1 51.319C113.361 51.0671 113.664 50.8711 114.022 50.7171C114.379 50.5771 114.778 50.5071 115.218 50.5071C115.658 50.5071 116.071 50.5771 116.429 50.7311C116.8 50.8851 117.103 51.0951 117.364 51.361C117.625 51.627 117.832 51.949 117.969 52.2989C118.107 52.6629 118.175 53.0549 118.175 53.4888H117.02C117.02 52.9009 116.855 52.4389 116.511 52.089C116.181 51.739 115.741 51.571 115.205 51.571C114.668 51.571 114.242 51.739 113.898 52.061C113.568 52.3829 113.389 52.8029 113.389 53.3348C113.389 53.6148 113.458 53.8668 113.582 54.0628C113.705 54.2587 113.884 54.4407 114.09 54.5807C114.297 54.7347 114.544 54.8607 114.819 54.9727C115.094 55.0847 115.383 55.2107 115.686 55.3366C116.071 55.4906 116.429 55.6446 116.772 55.8126C117.116 55.9806 117.433 56.1766 117.694 56.4005C117.955 56.6245 118.175 56.9045 118.34 57.2405C118.506 57.5624 118.588 57.9824 118.588 58.4723C118.588 58.9623 118.506 59.3963 118.327 59.7882C118.148 60.1802 117.914 60.5161 117.598 60.8101C117.295 61.0901 116.938 61.3141 116.525 61.4681C116.112 61.622 115.672 61.692 115.205 61.692C114.737 61.692 114.297 61.608 113.898 61.4401C113.499 61.2721 113.141 61.0341 112.853 60.7401C112.55 60.4462 112.316 60.0822 112.151 59.6762C111.986 59.2703 111.89 58.8223 111.89 58.3324H113.045Z" fill="#002546"/>
<path d="M120.404 50.7311H121.531V61.4681H120.404V50.7311Z" fill="#002546"/>
<path d="M125.988 51.809H122.893V50.7311H130.197V51.809H127.102V61.4681H125.974V51.809H125.988Z" fill="#002546"/>
<path d="M131.476 50.7311H137.803V51.809H132.603V55.3366H137.349V56.4145H132.603V60.4042H137.803V61.4821H131.476V50.7311Z" fill="#002546"/>
<path d="M141.791 51.809H138.697V50.7311H146V51.809H142.919V61.4681H141.791V51.809Z" fill="#002546"/>
</svg>
