<?xml version="1.0" encoding="UTF-8"?>
<svg id="Layer_1" xmlns="http://www.w3.org/2000/svg" version="1.1" viewBox="0 0 155.6 115.6">
  <!-- Generator: Adobe Illustrator 29.4.0, SVG Export Plug-In . SVG Version: 2.1.0 Build 152)  -->
  <defs>
    <style>
      .st0 {
        fill: #3b82f6;
      }

      .st1 {
        fill: #002546;
      }

      .st2 {
        fill: #fff;
      }
    </style>
  </defs>
  <path class="st0" d="M155.6,91.9c-3.5,2.1-7.6,3.2-12,3.2-6.8,0-12.9-2.8-17.3-7.3-5.1,2-10.7,3.1-16.6,3.1-25.1,0-45.5-20.4-45.5-45.5S84.6,0,109.7,0s45.5,20.4,45.5,45.5-4.2,22-11.2,29.9c1.3,7.1,5.6,13,11.6,16.5h0Z"/>
  <path class="st2" d="M111.2,53.2c-1.5.5-2.8.5-4.1-.1s-2.1-1.5-2.6-2.8c-.6-1.5-.9-2.7-1-3.7-.1-1,0-1.9.4-2.8.4-.8.9-1.8,1.7-2.8.8-1.2,1.5-2,2-2.7.5-.6.8-1.2.9-1.7s.1-1-.1-1.6c-.3-.9-.8-1.3-1.5-1.5-.7-.1-1.4,0-2.1.2-.5.2-.9.5-1.3.9s-.9.9-1.3,1.5c-.8,1-1.9,1.5-3.3,1.7-1.4.2-2.6,0-3.7-.5-1.2-.5-2-1.2-2.5-2.2s-.6-2-.5-3.2c.2-1.1.6-2.1,1.4-3,2-2.3,4.6-4,7.9-5.1,2.7-.9,5.2-1.1,7.5-.7,2.4.4,4.4,1.3,6.1,2.7s2.9,3.1,3.6,5.2c.5,1.6.8,3.1.7,4.3,0,1.2-.3,2.3-.7,3.2-.4.9-.9,1.8-1.5,2.5-.6.8-1.2,1.5-1.7,2.2-.4.6-.6,1.1-.6,1.5s.2.9.5,1.5c.4.8.4,1.6.1,2.6-.3.9-.8,1.8-1.6,2.5-.8.8-1.6,1.3-2.6,1.6h0s0,0,0,0ZM116.1,67.6c-1.7.6-3.4.5-4.9-.3-1.5-.8-2.6-2-3.1-3.7-.6-1.7-.5-3.3.3-4.8.8-1.5,2-2.6,3.7-3.2,1.7-.6,3.3-.5,4.9.3s2.6,2,3.2,3.7.5,3.3-.3,4.9c-.8,1.5-2,2.6-3.7,3.1h0Z"/>
  <path class="st1" d="M91.4,65.9c0,25.1-20.4,45.5-45.5,45.5s-11.4-1.1-16.5-3.1c-4.4,4.5-10.5,7.3-17.3,7.3s-8.5-1.2-12-3.3c6-3.4,10.4-9.4,11.6-16.5C4.7,87.8.4,77.4.4,65.9.4,40.8,20.8,20.4,45.9,20.4s45.5,20.4,45.5,45.5h0Z"/>
  <path class="st2" d="M43.3,73.9c-1.4-.4-2.5-1.3-3.2-2.5-.8-1.3-.9-2.6-.4-4.1.7-1.9,1.3-3.6,1.7-5.1.4-1.5.8-3,1.1-4.4.3-1.4.6-2.9.9-4.5.3-1.6.6-3.3,1-5.3.2-1.2.8-2.2,1.6-2.9.9-.7,1.9-1.2,3-1.4s2.2-.2,3.3.1,2,.9,2.9,1.7,1.4,1.8,1.7,2.8.3,2.2-.2,3.3c-.8,1.8-1.5,3.5-2.1,5s-1.2,2.9-1.7,4.2-1,2.8-1.5,4.3-.9,3.2-1.4,5.2c-.4,1.5-1.2,2.6-2.6,3.2-1.3.6-2.7.8-4.1.3h0ZM39.1,87.9c-1.7-.5-3-1.5-3.8-3-.8-1.5-1-3.1-.4-4.9.5-1.7,1.5-3,3-3.8,1.5-.8,3.1-1,4.9-.5s3,1.5,3.8,3.1c.8,1.5,1,3.2.5,4.8-.5,1.7-1.6,3-3.1,3.8-1.5.8-3.1,1-4.8.4h0Z"/>
</svg>