<?xml version="1.0" encoding="UTF-8"?>
<svg id="Layer_1" xmlns="http://www.w3.org/2000/svg" version="1.1" viewBox="0 0 383.62 76.45">
  <!-- Generator: Adobe Illustrator 30.0.0, SVG Export Plug-In . SVG Version: 2.1.1 Build 123)  -->
  <defs>
    <style>
      .st0 {
        fill: #002546;
      }

      .st1 {
        fill: #3b82f6;
      }
    </style>
  </defs>
  <path class="st1" d="M45.26,17.62c0,2.3-.72,4.33-2.15,6.07-1.43,1.74-3.33,2.49-5.69,2.24-2.43-.31-4.53-.53-6.3-.65-1.77-.12-3.55-.2-5.32-.23-1.77-.03-3.94-.05-6.49-.05-1.12,0-1.82.31-2.1.93-.28.62-.39,1.31-.33,2.05.12.87.19,1.56.19,2.05s.01.97.05,1.4c.03.44.05,1.06.05,1.87.06.44.22.83.47,1.17.25.34.59.51,1.03.51,1.62,0,3.69-.03,6.21-.09,2.52-.06,5.27-.31,8.26-.75,1.55-.31,2.92-.08,4.11.7,1.18.78,2.11,1.84,2.8,3.17.68,1.34,1.03,2.85,1.03,4.53,0,2.24-.67,4.03-2.01,5.37-1.34,1.34-3.13,2.01-5.37,2.01-3.11,0-5.85.05-8.21.14-2.37.09-4.48.3-6.35.61-.5.06-.86.22-1.07.47-.22.25-.33.69-.33,1.31,0,1.99.01,3.69.05,5.09.03,1.4.11,2.89.23,4.48.12,1.59.34,3.66.65,6.21.25,2.37-.58,4.26-2.47,5.69-1.9,1.43-4.53,2.15-7.89,2.15-2.24,0-4.2-.7-5.88-2.1C.75,72.57-.06,70.75,0,68.51c.31-6.1.51-11.87.61-17.32.09-5.45.09-10.89,0-16.34C.52,29.4.31,23.66,0,17.63c-.06-2.3.75-4.14,2.43-5.51,1.68-1.37,3.64-2.05,5.88-2.05h29.59c2.24,0,4.03.69,5.37,2.05,1.34,1.37,2.01,3.21,2.01,5.51h-.02Z"/>
  <path class="st1" d="M54.71,76.25c-1.62,0-3.16-.36-4.62-1.07-1.46-.72-2.63-1.71-3.5-2.99-.87-1.28-1.25-2.75-1.12-4.43.31-4.36.51-8.29.61-11.81.09-3.52.09-7.06,0-10.64s-.3-7.48-.61-11.71c-.19-2.18.54-3.94,2.19-5.27,1.65-1.34,3.53-2.01,5.65-2.01,1.12,0,2.02.19,2.71.56.68.37,1.21.93,1.59,1.68.44.62.79,1.04,1.07,1.26.28.22.54.23.79.05.5-.37,1.13-.79,1.91-1.26.78-.47,1.7-.95,2.75-1.45,1.06-.5,2.29-.9,3.69-1.21,1.4-.31,2.97-.47,4.71-.47.62,0,1.23.02,1.82.05.59.03,1.1.08,1.54.14,2.24.25,3.98,1.31,5.23,3.17,1.24,1.87,1.4,4.23.47,7.09-.44,1.31-1.18,2.49-2.24,3.55-1.06,1.06-2.24,1.74-3.55,2.05s-2.58,0-3.83-.93c-.25-.19-.51-.34-.79-.47-.28-.12-.61-.19-.98-.19-1.18,0-2.32.39-3.41,1.17-1.09.78-1.96,1.84-2.61,3.17-.65,1.34-.98,2.85-.98,4.53,0,2.61.01,4.84.05,6.67.03,1.84.11,3.66.23,5.46.12,1.81.34,3.98.65,6.53.25,1.68-.05,3.19-.89,4.53s-2.02,2.38-3.55,3.13-3.19,1.12-4.99,1.12h.01Z"/>
  <path class="st1" d="M94.79,20.53c-1.87,0-3.58-.47-5.13-1.4-1.56-.93-2.8-2.18-3.73-3.73s-1.4-3.27-1.4-5.13.47-3.67,1.4-5.23c.93-1.55,2.18-2.78,3.73-3.69,1.56-.9,3.27-1.35,5.13-1.35s3.67.45,5.23,1.35c1.55.9,2.78,2.13,3.69,3.69.9,1.56,1.35,3.3,1.35,5.23,0,2.8-.89,5.21-2.66,7.24-1.77,2.02-4.31,3.03-7.61,3.03h0ZM94.89,76.45c-1.68,0-3.27-.36-4.76-1.07-1.49-.72-2.68-1.71-3.55-2.99-.87-1.28-1.25-2.75-1.12-4.43.31-4.17.51-8.03.61-11.58.09-3.55.09-7.09,0-10.64-.09-3.55-.3-7.41-.61-11.58-.12-1.74.25-3.24,1.12-4.48.87-1.25,2.05-2.22,3.55-2.94,1.49-.71,3.08-1.07,4.76-1.07,2.49,0,4.5.76,6.02,2.29,1.52,1.53,2.29,3.53,2.29,6.02,0,4.17.01,8.04.05,11.62.03,3.58.11,7.16.23,10.74.12,3.58.34,7.45.65,11.62.12,1.68-.25,3.16-1.12,4.43-.87,1.28-2.02,2.27-3.45,2.99-1.43.71-2.99,1.07-4.67,1.07Z"/>
  <path class="st1" d="M132.22,76.25c-4.48,0-8.2-.81-11.16-2.43-2.96-1.62-5.29-3.66-7-6.12s-2.93-4.98-3.64-7.56c-.72-2.58-1.07-4.9-1.07-6.95v-2.33c0-2.67.36-5.49,1.07-8.45.71-2.96,1.93-5.71,3.64-8.26s4.04-4.64,7-6.25c2.96-1.62,6.67-2.43,11.16-2.43,4.17,0,7.59.55,10.27,1.63,2.67,1.09,4.76,2.46,6.25,4.11,1.49,1.65,2.54,3.39,3.13,5.23.59,1.84.89,3.47.89,4.9,0,2.43-.47,4.43-1.4,6.02-.93,1.59-2.16,2.83-3.69,3.73s-3.27,1.57-5.23,2.01c-1.96.44-3.98.76-6.07.98-2.08.22-4.09.42-6.02.61-1.49.13-2.47.44-2.94.93-.47.5-.7,1.15-.7,1.96s.2,1.54.61,2.19c.4.65,1.03,1.15,1.87,1.49.84.34,1.85.51,3.03.51,1.37,0,2.74-.42,4.11-1.26s2.61-1.45,3.73-1.82c1.43-.5,2.85-.48,4.25.05,1.4.53,2.61,1.35,3.64,2.47,1.03,1.12,1.69,2.37,2.01,3.73.56,2.3.45,4.12-.33,5.46s-1.73,2.26-2.85,2.75c-1.18.5-3.08,1.14-5.69,1.91-2.61.78-5.57,1.17-8.87,1.17v.02ZM129.6,43.48c2.61-.12,4.29-.47,5.04-1.03s1.12-1.31,1.12-2.24c0-.75-.16-1.37-.47-1.87s-.73-.87-1.26-1.12-1.14-.37-1.82-.37c-1.06,0-1.98.19-2.75.56-.78.37-1.42.93-1.91,1.68-.5.75-.75,1.65-.75,2.71,0,.62.31,1.07.93,1.35s1.24.39,1.87.33Z"/>
  <path class="st1" d="M157.09,33.59c-.19-2.12.54-3.84,2.19-5.18,1.65-1.34,3.53-2.01,5.65-2.01,1.12,0,2.13.17,3.03.51.9.34,1.54,1.04,1.91,2.1.12.56.4.96.84,1.21.43.25,1.03.19,1.77-.19.37-.19.89-.51,1.54-.98.65-.47,1.46-.96,2.43-1.49.96-.53,2.07-1,3.31-1.4s2.71-.61,4.39-.61c6.16,0,10.66,1.9,13.49,5.69,2.83,3.8,4.25,9.68,4.25,17.64,0,2.61,0,4.84.05,6.67.03,1.84.11,3.66.23,5.46.12,1.81.34,3.98.65,6.53.31,2.49-.45,4.56-2.29,6.21-1.84,1.65-4.12,2.47-6.86,2.47-2.93,0-5.32-.83-7.19-2.47s-2.65-3.72-2.33-6.21c.31-2.55.53-4.73.65-6.53.12-1.8.2-3.62.23-5.46.03-1.83.05-4.06.05-6.67,0-3.36-.23-5.68-.7-6.96-.47-1.27-1.32-1.91-2.57-1.91s-2.32.39-3.41,1.17-1.96,1.84-2.61,3.17c-.65,1.34-.98,2.85-.98,4.53,0,2.61,0,4.84.05,6.67.03,1.84.11,3.66.23,5.46.12,1.81.34,3.98.65,6.53.31,2.49-.45,4.56-2.29,6.21-1.84,1.65-4.12,2.47-6.86,2.47s-5.06-.78-6.95-2.33c-1.9-1.55-2.75-3.58-2.57-6.07.31-4.36.51-8.29.61-11.81.09-3.51.09-7.06,0-10.64s-.3-7.51-.61-11.81l.02.03Z"/>
  <path class="st0" d="M231.49,76.34c-2.61,0-5.06-.26-7.33-.79-2.27-.53-4.06-1.01-5.37-1.45-1.81-.75-3.05-1.88-3.73-3.41-.69-1.53-.84-3.19-.47-4.99.5-2.43,1.62-4.22,3.36-5.37,1.74-1.15,3.64-1.35,5.69-.61,1.24.43,2.47.9,3.69,1.4,1.21.5,2.6.75,4.15.75,1.31,0,2.32-.19,3.03-.56s1.27-.92,1.68-1.63c.4-.72.7-1.54.89-2.47.19-.56.17-.92-.05-1.07-.22-.16-.48-.2-.79-.14-.5.12-1.12.33-1.87.61s-1.6.53-2.57.75c-.96.22-2.16.33-3.59.33-4.23,0-7.65-1.04-10.27-3.13-2.61-2.08-4.51-4.87-5.69-8.36-1.18-3.48-1.77-7.34-1.77-11.58v-2.33c0-2.67.36-5.49,1.07-8.45.71-2.96,1.93-5.71,3.64-8.26,1.71-2.55,4.04-4.64,7-6.25,2.96-1.62,6.67-2.43,11.16-2.43,3.23,0,6.07.25,8.49.75,2.43.5,4.61,1.09,6.54,1.77,1.99.75,3.69,1.9,5.09,3.45,1.4,1.56,2.01,3.42,1.82,5.6-.25,3.3-.44,6.35-.56,9.15-.12,2.8-.22,5.51-.28,8.12s-.09,5.31-.09,8.08v9.19c0,2.74-.37,5.48-1.12,8.22s-1.99,5.26-3.73,7.56-4.08,4.14-7,5.51c-2.93,1.37-6.6,2.05-11.02,2.05h0ZM230.56,42.27c1.31,0,2.5-.33,3.59-.98,1.09-.65,1.99-1.59,2.71-2.8.71-1.21,1.07-2.6,1.07-4.15,0-1.99.06-3.78.19-5.37.12-1.59.19-3.1.19-4.53,0-.62-.08-1.06-.23-1.31-.16-.25-.42-.56-.79-.93-.37-.25-.89-.45-1.54-.61-.65-.16-1.45-.23-2.38-.23-1.31,0-2.35.27-3.13.79-.78.53-1.39,1.28-1.82,2.24-.44.96-.73,2.12-.89,3.45-.16,1.34-.23,2.82-.23,4.43v2.33c0,3.11.22,5.17.65,6.16.43,1,1.31,1.49,2.61,1.49v.02Z"/>
  <path class="st0" d="M282.18,57.67c-4.48,0-8.2-.81-11.16-2.43-2.96-1.62-5.29-3.66-7-6.12-1.71-2.46-2.93-4.98-3.64-7.56-.72-2.58-1.07-4.9-1.07-6.95v-2.33c0-2.67.36-5.49,1.07-8.45s1.93-5.71,3.64-8.26c1.71-2.55,4.04-4.64,7-6.25,2.96-1.62,6.67-2.43,11.16-2.43,4.17,0,7.59.55,10.27,1.63,2.67,1.09,4.76,2.46,6.25,4.11s2.54,3.39,3.13,5.23c.59,1.84.89,3.47.89,4.9,0,2.43-.47,4.43-1.4,6.02s-2.16,2.83-3.69,3.73c-1.53.9-3.27,1.57-5.23,2.01-1.96.44-3.98.76-6.07.98-2.08.22-4.09.42-6.02.61-1.49.13-2.47.44-2.94.93-.47.5-.7,1.15-.7,1.96s.2,1.54.61,2.19c.4.65,1.03,1.15,1.87,1.49.84.34,1.85.51,3.03.51,1.37,0,2.74-.42,4.11-1.26s2.61-1.45,3.73-1.82c1.43-.5,2.85-.48,4.25.05,1.4.53,2.61,1.35,3.64,2.47,1.03,1.12,1.69,2.37,2.01,3.73.56,2.3.45,4.12-.33,5.46-.78,1.34-1.73,2.26-2.85,2.75-1.18.5-3.08,1.14-5.69,1.91-2.61.78-5.57,1.17-8.87,1.17v.02ZM279.57,24.91c2.61-.12,4.29-.47,5.04-1.03s1.12-1.31,1.12-2.24c0-.75-.16-1.37-.47-1.87s-.73-.87-1.26-1.12-1.14-.37-1.82-.37c-1.06,0-1.98.19-2.75.56-.78.37-1.42.93-1.91,1.68-.5.75-.75,1.65-.75,2.71,0,.62.31,1.07.93,1.35s1.24.39,1.87.33Z"/>
  <path class="st0" d="M315.97,57.67c-1.62,0-3.16-.36-4.62-1.07-1.46-.72-2.63-1.71-3.5-2.99s-1.25-2.75-1.12-4.43c.31-4.36.51-8.29.61-11.81.09-3.52.09-7.06,0-10.64-.09-3.58-.3-7.48-.61-11.71-.19-2.18.54-3.94,2.19-5.27,1.65-1.34,3.53-2.01,5.65-2.01,1.12,0,2.02.19,2.71.56.68.37,1.21.93,1.59,1.68.43.62.79,1.04,1.07,1.26s.54.23.79.05c.5-.37,1.13-.79,1.91-1.26s1.7-.95,2.75-1.45c1.06-.5,2.29-.9,3.69-1.21s2.97-.47,4.71-.47c.62,0,1.23.02,1.82.05s1.1.08,1.54.14c2.24.25,3.98,1.31,5.23,3.17,1.24,1.87,1.4,4.23.47,7.09-.44,1.31-1.18,2.49-2.24,3.55-1.06,1.06-2.24,1.74-3.55,2.05s-2.58,0-3.83-.93c-.25-.19-.51-.34-.79-.47-.28-.12-.61-.19-.98-.19-1.18,0-2.32.39-3.41,1.17s-1.96,1.84-2.61,3.17c-.65,1.34-.98,2.85-.98,4.53,0,2.61,0,4.84.05,6.67.03,1.84.11,3.66.23,5.46.12,1.81.34,3.98.65,6.53.25,1.68-.05,3.19-.89,4.53s-2.02,2.38-3.55,3.13-3.19,1.12-5,1.12h.02Z"/>
  <path class="st0" d="M362.65,57.67c-2.61,0-5.04-.27-7.28-.79-2.24-.53-4.08-1.01-5.51-1.45-1.74-.75-3.11-1.9-4.11-3.45s-1.28-3.36-.84-5.41c.31-1.49,1.01-2.86,2.1-4.11,1.09-1.24,2.38-2.1,3.87-2.57s2.99-.29,4.48.51c.93.5,1.96.93,3.08,1.31,1.12.37,2.52.56,4.2.56,1.31,0,2.33-.33,3.08-.98.75-.65,1.12-1.57,1.12-2.75,0-.93-.44-1.71-1.31-2.33-.87-.62-2.15-1.03-3.83-1.21-2.12-.31-4.12-.64-6.02-.98-1.9-.34-3.55-.9-4.95-1.68s-2.49-1.88-3.27-3.31c-.78-1.43-1.17-3.36-1.17-5.79,0-3.3.78-6.18,2.33-8.64,1.56-2.46,3.69-4.36,6.39-5.69,2.71-1.34,5.87-2.01,9.48-2.01,2.24,0,4.37.23,6.39.7,2.02.47,3.72.98,5.09,1.54,1.74.81,3.11,1.98,4.11,3.5.99,1.53,1.24,3.35.75,5.46-.31,1.43-1.04,2.69-2.19,3.78-1.15,1.09-2.49,1.77-4.01,2.05-1.53.28-3,0-4.43-.89-.81-.5-1.67-.9-2.57-1.21-.9-.31-1.95-.47-3.13-.47-.75,0-1.32.16-1.73.47-.41.31-.61.78-.61,1.4s.26,1.15.79,1.59c.53.44,1.97.78,4.34,1.03,3.05.37,5.8,1.07,8.26,2.1,2.46,1.03,4.42,2.57,5.88,4.62,1.46,2.05,2.19,4.79,2.19,8.21,0,3.8-.89,6.95-2.66,9.47-1.77,2.52-4.25,4.39-7.42,5.6-3.17,1.21-6.81,1.82-10.92,1.82h.03Z"/>
</svg>